<?xml version="1.0" standalone="no"?>
<!DOCTYPE svg PUBLIC "-//W3C//DTD SVG 20010904//EN"
 "http://www.w3.org/TR/2001/REC-SVG-20010904/DTD/svg10.dtd">
<svg version="1.0" xmlns="http://www.w3.org/2000/svg"
 width="385.000000pt" height="385.000000pt" viewBox="0 0 385.000000 385.000000"
 preserveAspectRatio="xMidYMid meet">
<metadata>
Created by potrace 1.14, written by Peter Selinger 2001-2017
</metadata>
<g transform="translate(0.000000,385.000000) scale(0.100000,-0.100000)"
fill="#000000" stroke="none">
<path d="M1135 2854 c-112 -20 -117 -21 -185 -47 -82 -31 -154 -67 -216 -109
-46 -30 -185 -163 -230 -219 -48 -60 -131 -218 -149 -284 -5 -16 -9 -32 -10
-35 -1 -3 -5 -21 -9 -40 -4 -19 -9 -42 -12 -51 -4 -14 17 -15 185 -15 138 1
193 4 203 14 6 6 9 12 4 12 -20 0 84 169 139 225 79 81 196 149 295 171 89 20
315 3 345 -27 5 -5 15 -9 21 -9 21 0 126 -67 166 -105 20 -19 39 -35 41 -35 2
0 12 19 23 43 10 23 21 44 24 47 3 3 18 25 32 50 15 25 51 74 81 110 l55 64
-24 23 c-14 13 -55 42 -92 65 -37 24 -76 49 -87 56 -11 6 -27 15 -35 18 -8 3
-24 10 -35 14 -33 15 -114 40 -163 51 -26 6 -56 13 -67 15 -44 11 -234 9 -300
-2z"/>
<path d="M2525 2858 c-138 -18 -328 -95 -441 -179 -71 -52 -160 -141 -211
-210 -38 -52 -124 -200 -125 -216 0 -4 -5 -19 -10 -33 -5 -14 -20 -70 -33
-125 -27 -120 -28 -306 -1 -419 25 -107 27 -107 76 -30 23 37 47 72 52 78 9
11 113 166 153 230 188 297 266 391 379 455 171 98 399 103 570 13 140 -74
261 -214 296 -344 8 -27 16 -38 30 -39 11 0 83 0 160 0 232 0 209 -4 203 34
-9 55 -54 189 -85 252 -68 135 -202 290 -321 368 -108 72 -259 136 -357 152
-19 3 -42 8 -50 10 -30 9 -226 11 -285 3z"/>
<path d="M2157 2123 c-86 -134 -162 -248 -170 -258 -5 -5 -51 -75 -103 -155
-129 -199 -122 -188 -184 -251 -190 -190 -486 -225 -724 -87 -107 62 -235 225
-265 335 l-7 28 -192 3 -192 2 4 -37 c3 -21 12 -57 20 -81 8 -23 16 -44 16
-47 1 -2 4 -14 7 -25 6 -22 60 -134 91 -187 57 -98 198 -237 307 -304 86 -52
74 -46 140 -74 164 -69 396 -94 565 -59 147 30 314 108 420 194 189 154 321
375 356 594 3 21 8 48 10 60 6 30 6 174 0 221 -10 70 -40 195 -48 195 -4 0
-27 -30 -51 -67z"/>
<path d="M3240 1716 c0 -5 -19 -47 -42 -95 -132 -267 -435 -394 -723 -304 -72
22 -114 46 -190 103 -37 28 -68 50 -69 48 -2 -2 -20 -34 -41 -73 -44 -80 -73
-122 -127 -182 -21 -24 -38 -47 -38 -52 0 -19 128 -105 225 -152 146 -70 233
-90 395 -95 88 -2 159 1 206 10 328 65 594 276 724 576 25 58 71 212 65 218
-8 8 -385 6 -385 -2z"/>
</g>
</svg>
