<svg width="1086" height="140" fill="none" xmlns="http://www.w3.org/2000/svg"><path d="M61.05 139.15c-11.317 0-21.583-2.275-30.8-6.825-9.1-4.667-16.333-11.55-21.7-20.65C3.183 102.575.5 91.433.5 78.25c0-10.033 1.633-18.842 4.9-26.425 3.267-7.583 7.7-13.942 13.3-19.075 5.717-5.133 12.25-8.983 19.6-11.55 7.467-2.567 15.342-3.85 23.625-3.85 6.65 0 12.775.758 18.375 2.275s10.85 3.617 15.75 6.3l.7 21.525H95l-8.75-14c-1.167-2.217-2.45-4.2-3.85-5.95-1.4-1.867-3.15-3.267-5.25-4.2-1.75-.817-3.5-1.4-5.25-1.75-1.633-.467-3.733-.7-6.3-.7-6.767 0-12.95 1.808-18.55 5.425-5.483 3.617-9.917 9.625-13.3 18.025-3.267 8.283-4.9 19.658-4.9 34.125 0 14.35 1.575 25.725 4.725 34.125 3.15 8.283 7.408 14.233 12.775 17.85 5.483 3.5 11.608 5.25 18.375 5.25 3.733 0 6.708-.233 8.925-.7a38.276 38.276 0 0 0 6.65-2.45c2.217-.933 3.908-2.275 5.075-4.025a47.972 47.972 0 0 0 3.15-5.95l7.7-17.15h1.75L97.45 130.4c-4.9 2.567-10.383 4.667-16.45 6.3s-12.717 2.45-19.95 2.45Zm45.419-3.15v-1.75l2.1-.7c4.2-1.4 6.3-4.317 6.3-8.75V31.35c0-2.45-.408-4.258-1.225-5.425-.816-1.167-2.391-2.042-4.725-2.625l-2.625-.7v-1.75l30.8-7.525 2.8 1.575-.7 24.675V61.45a68.651 68.651 0 0 1 13.125-8.575c4.784-2.45 10.034-3.675 15.75-3.675 7.584 0 13.592 2.158 18.025 6.475 4.55 4.317 6.825 10.967 6.825 19.95v49.35c0 2.333.467 4.2 1.4 5.6.934 1.4 2.567 2.45 4.9 3.15l1.4.525V136h-40.95v-1.75l2.1-.525c4.2-1.4 6.3-4.375 6.3-8.925V69.85c0-4.667-.816-7.875-2.45-9.625-1.516-1.75-4.258-2.625-8.225-2.625-2.566 0-5.366.525-8.4 1.575-3.033.933-6.125 2.625-9.275 5.075v60.9c0 4.55 2.1 7.467 6.3 8.75l1.4.35V136h-40.95Zm144.914-86.8c7.583 0 14.058 1.575 19.425 4.725 5.367 3.033 9.45 7.233 12.25 12.6 2.917 5.25 4.375 11.258 4.375 18.025 0 1.283-.058 2.625-.175 4.025-.117 1.283-.35 2.45-.7 3.5h-52.15c.117 12.6 2.333 21.7 6.65 27.3 4.433 5.483 10.967 8.225 19.6 8.225 5.833 0 10.558-.933 14.175-2.8 3.617-1.867 7-4.608 10.15-8.225l1.75 1.575c-3.617 6.417-8.458 11.433-14.525 15.05-5.95 3.617-13.125 5.425-21.525 5.425-8.283 0-15.633-1.75-22.05-5.25-6.417-3.617-11.433-8.75-15.05-15.4-3.617-6.65-5.425-14.583-5.425-23.8 0-9.567 2.1-17.675 6.3-24.325 4.2-6.767 9.567-11.9 16.1-15.4 6.65-3.5 13.592-5.25 20.825-5.25Zm-.525 3.5c-3.383 0-6.3 1.05-8.75 3.15-2.333 1.983-4.2 5.6-5.6 10.85-1.283 5.133-1.983 12.425-2.1 21.875h29.925c1.167-12.717.7-21.875-1.4-27.475-2.1-5.6-6.125-8.4-12.075-8.4Zm-9.275-16.975c1.633-3.033 3.5-6.417 5.6-10.15 2.1-3.85 4.608-8.517 7.525-14 1.983-3.733 3.908-6.417 5.775-8.05C262.35 1.775 264.508.9 266.958.9c2.217 0 4.142.758 5.775 2.275 1.633 1.4 2.45 3.15 2.45 5.25 0 2.217-.758 4.317-2.275 6.3-1.517 1.867-4.083 4.083-7.7 6.65-5.017 3.5-9.217 6.592-12.6 9.275a919.849 919.849 0 0 1-9.1 6.825l-1.925-1.75Zm129.607 102.9c-7.7 0-14.292-1.4-19.775-4.2-5.367-2.917-9.45-6.708-12.25-11.375-2.8-4.667-4.2-9.858-4.2-15.575 0-14.117 9.1-24.967 27.3-32.55-3.267-4.433-6.184-8.925-8.75-13.475-2.45-4.55-3.675-9.858-3.675-15.925 0-8.283 2.916-14.875 8.75-19.775 5.95-5.017 13.708-7.525 23.275-7.525 9.333 0 16.566 2.1 21.7 6.3 5.133 4.083 7.7 9.508 7.7 16.275 0 5.717-2.334 10.733-7 15.05-4.667 4.317-11.317 8.283-19.95 11.9a258.332 258.332 0 0 1 6.825 7.875 473.563 473.563 0 0 0 7.525 8.05 952.7 952.7 0 0 0 9.1 9.975 377.764 377.764 0 0 1 9.1 9.8c2.8-3.85 5.425-8.517 7.875-14 2.45-5.483 4.375-11.258 5.775-17.325.933-4.433-.759-7.292-5.075-8.575l-1.225-.525v-1.75h19.775v1.75l-1.575.525c-3.85 1.283-6.359 3.967-7.525 8.05-1.75 6.533-3.909 12.717-6.475 18.55-2.567 5.833-5.542 11.142-8.925 15.925l18.725 19.775c1.516 1.633 3.033 2.975 4.55 4.025a64.193 64.193 0 0 0 5.075 3.15l2.45 1.225V136h-35.35l-11.725-12.6c-2.217 2.45-4.725 4.842-7.525 7.175-2.8 2.333-6.184 4.258-10.15 5.775-3.967 1.517-8.75 2.275-14.35 2.275Zm11.025-73.15c4.55-4.083 7.816-8.167 9.8-12.25 2.1-4.2 3.15-8.808 3.15-13.825 0-4.55-1.167-8.225-3.5-11.025-2.334-2.917-5.542-4.375-9.625-4.375-3.85 0-7.059 1.4-9.625 4.2-2.567 2.8-3.85 6.358-3.85 10.675 0 2.683.466 5.483 1.4 8.4 1.05 2.917 2.858 6.242 5.425 9.975.7.933 1.633 2.042 2.8 3.325 1.166 1.283 2.508 2.917 4.025 4.9Zm-.875 61.425c4.083 0 7.758-.583 11.025-1.75 3.266-1.283 6.066-2.858 8.4-4.725-2.8-3.15-5.717-6.417-8.75-9.8-3.034-3.5-5.892-6.825-8.575-9.975-3.267-3.85-6.475-7.7-9.625-11.55a474.333 474.333 0 0 0-9.1-11.2c-3.034 2.8-5.25 6.067-6.65 9.8-1.4 3.733-2.1 7.642-2.1 11.725 0 7.933 2.333 14.525 7 19.775 4.783 5.133 10.908 7.7 18.375 7.7Zm177.708 12.25c-11.317 0-21.583-2.275-30.8-6.825-9.1-4.667-16.333-11.55-21.7-20.65-5.367-9.1-8.05-20.242-8.05-33.425 0-10.033 1.633-18.842 4.9-26.425 3.267-7.583 7.7-13.942 13.3-19.075 5.717-5.133 12.25-8.983 19.6-11.55 7.467-2.567 15.342-3.85 23.625-3.85 6.65 0 12.775.758 18.375 2.275s10.85 3.617 15.75 6.3l.7 21.525h-1.75l-8.75-14c-1.167-2.217-2.45-4.2-3.85-5.95-1.4-1.867-3.15-3.267-5.25-4.2-1.75-.817-3.5-1.4-5.25-1.75-1.633-.467-3.733-.7-6.3-.7-6.767 0-12.95 1.808-18.55 5.425-5.483 3.617-9.917 9.625-13.3 18.025-3.267 8.283-4.9 19.658-4.9 34.125 0 14.35 1.575 25.725 4.725 34.125 3.15 8.283 7.408 14.233 12.775 17.85 5.483 3.5 11.608 5.25 18.375 5.25 3.733 0 6.708-.233 8.925-.7a38.276 38.276 0 0 0 6.65-2.45c2.217-.933 3.908-2.275 5.075-4.025a47.892 47.892 0 0 0 3.15-5.95l7.7-17.15h1.75l-.525 25.025c-4.9 2.567-10.383 4.667-16.45 6.3s-12.717 2.45-19.95 2.45Zm45.419-3.15v-1.75l2.1-.7c4.2-1.4 6.3-4.317 6.3-8.75V31.35c0-2.45-.408-4.258-1.225-5.425-.816-1.167-2.391-2.042-4.725-2.625l-2.625-.7v-1.75l30.8-7.525 2.8 1.575-.7 24.675V61.45a68.651 68.651 0 0 1 13.125-8.575c4.784-2.45 10.034-3.675 15.75-3.675 7.584 0 13.592 2.158 18.025 6.475 4.55 4.317 6.825 10.967 6.825 19.95v49.35c0 2.333.467 4.2 1.4 5.6.934 1.4 2.567 2.45 4.9 3.15l1.4.525V136h-40.95v-1.75l2.1-.525c4.2-1.4 6.3-4.375 6.3-8.925V69.85c0-4.667-.816-7.875-2.45-9.625-1.516-1.75-4.258-2.625-8.225-2.625-2.566 0-5.366.525-8.4 1.575-3.033.933-6.125 2.625-9.275 5.075v60.9c0 4.55 2.1 7.467 6.3 8.75l1.4.35V136h-40.95Zm144.914-86.8c7.583 0 14.058 1.575 19.425 4.725 5.367 3.033 9.45 7.233 12.25 12.6 2.917 5.25 4.375 11.258 4.375 18.025 0 1.283-.058 2.625-.175 4.025-.117 1.283-.35 2.45-.7 3.5h-52.15c.117 12.6 2.333 21.7 6.65 27.3 4.433 5.483 10.967 8.225 19.6 8.225 5.833 0 10.558-.933 14.175-2.8 3.617-1.867 7-4.608 10.15-8.225l1.75 1.575c-3.617 6.417-8.458 11.433-14.525 15.05-5.95 3.617-13.125 5.425-21.525 5.425-8.283 0-15.633-1.75-22.05-5.25-6.417-3.617-11.433-8.75-15.05-15.4-3.617-6.65-5.425-14.583-5.425-23.8 0-9.567 2.1-17.675 6.3-24.325 4.2-6.767 9.567-11.9 16.1-15.4 6.65-3.5 13.592-5.25 20.825-5.25Zm-.525 3.5c-3.383 0-6.3 1.05-8.75 3.15-2.333 1.983-4.2 5.6-5.6 10.85-1.283 5.133-1.983 12.425-2.1 21.875h29.925c1.167-12.717.7-21.875-1.4-27.475-2.1-5.6-6.125-8.4-12.075-8.4Zm45.296 83.3v-1.75l2.625-.7c2.334-.7 3.909-1.75 4.725-3.15.934-1.4 1.4-3.208 1.4-5.425V70.2c0-2.567-.466-4.433-1.4-5.6-.816-1.283-2.391-2.158-4.725-2.625l-2.625-.7v-1.75l30.1-10.15 1.75 1.75 1.575 15.05v1.4a36.441 36.441 0 0 1 6.3-8.925c2.684-2.8 5.6-5.075 8.75-6.825 3.267-1.75 6.475-2.625 9.625-2.625 4.434 0 7.817 1.225 10.15 3.675 2.334 2.45 3.5 5.542 3.5 9.275 0 3.967-1.166 7.058-3.5 9.275-2.216 2.1-4.9 3.15-8.05 3.15-4.9 0-9.216-2.45-12.95-7.35l-.35-.35c-1.166-1.633-2.508-2.508-4.025-2.625-1.516-.233-2.916.467-4.2 2.1-1.166 1.05-2.158 2.333-2.975 3.85-.7 1.4-1.4 3.033-2.1 4.9v48.825c0 4.667 2.042 7.583 6.125 8.75l5.6 1.575V136h-45.325Zm98.246-95.9c-3.966 0-7.35-1.225-10.15-3.675-2.683-2.567-4.025-5.775-4.025-9.625 0-3.967 1.342-7.175 4.025-9.625 2.8-2.45 6.184-3.675 10.15-3.675 3.967 0 7.292 1.225 9.975 3.675 2.684 2.45 4.025 5.658 4.025 9.625 0 3.85-1.341 7.058-4.025 9.625-2.683 2.45-6.008 3.675-9.975 3.675Zm-20.65 95.9v-1.75l2.45-.7c2.334-.7 3.909-1.75 4.725-3.15.934-1.4 1.4-3.267 1.4-5.6V70.025c0-2.45-.466-4.258-1.4-5.425-.816-1.283-2.391-2.158-4.725-2.625l-2.45-.525V59.7l32.025-10.325 1.75 1.75-.525 24.85v49c0 2.333.409 4.2 1.225 5.6.934 1.4 2.509 2.45 4.725 3.15l1.75.525V136h-40.95Zm92.098 2.625c-7.933 0-15.166-1.692-21.7-5.075-6.416-3.5-11.55-8.517-15.4-15.05-3.733-6.65-5.6-14.758-5.6-24.325 0-9.45 2.042-17.5 6.125-24.15 4.2-6.767 9.742-11.9 16.625-15.4 7-3.617 14.642-5.425 22.925-5.425 6.767 0 12.484 1.108 17.15 3.325 4.667 2.217 8.225 5.133 10.675 8.75 2.45 3.5 3.675 7.175 3.675 11.025 0 3.267-.991 5.833-2.975 7.7-1.983 1.75-4.55 2.625-7.7 2.625-3.383 0-6.125-1.225-8.225-3.675-2.1-2.45-3.325-5.658-3.675-9.625-.116-2.567-.058-4.725.175-6.475a22.424 22.424 0 0 0 0-5.6c-.466-1.983-1.225-3.267-2.275-3.85-.933-.7-2.275-1.05-4.025-1.05-7.116 0-12.658 3.092-16.625 9.275-3.85 6.183-5.775 16.042-5.775 29.575 0 11.783 2.159 20.825 6.475 27.125 4.434 6.183 11.2 9.275 20.3 9.275 5.484 0 9.917-.992 13.3-2.975 3.384-1.983 6.65-4.958 9.8-8.925l1.75 1.4c-2.916 6.883-7.408 12.192-13.475 15.925-6.066 3.733-13.241 5.6-21.525 5.6ZM1049.82 49.2c7.58 0 14.06 1.575 19.43 4.725 5.36 3.033 9.45 7.233 12.25 12.6 2.91 5.25 4.37 11.258 4.37 18.025 0 1.283-.06 2.625-.17 4.025-.12 1.283-.35 2.45-.7 3.5h-52.15c.11 12.6 2.33 21.7 6.65 27.3 4.43 5.483 10.96 8.225 19.6 8.225 5.83 0 10.55-.933 14.17-2.8 3.62-1.867 7-4.608 10.15-8.225l1.75 1.575c-3.62 6.417-8.46 11.433-14.52 15.05-5.95 3.617-13.13 5.425-21.53 5.425-8.28 0-15.63-1.75-22.05-5.25-6.42-3.617-11.43-8.75-15.05-15.4-3.62-6.65-5.42-14.583-5.42-23.8 0-9.567 2.1-17.675 6.3-24.325 4.2-6.767 9.56-11.9 16.1-15.4 6.65-3.5 13.59-5.25 20.82-5.25Zm-.52 3.5c-3.39 0-6.3 1.05-8.75 3.15-2.34 1.983-4.2 5.6-5.6 10.85-1.29 5.133-1.99 12.425-2.1 21.875h29.92c1.17-12.717.7-21.875-1.4-27.475-2.1-5.6-6.12-8.4-12.07-8.4Z" fill="#000"/></svg>