<svg width="353" height="167" fill="none" xmlns="http://www.w3.org/2000/svg"><mask id="a" style="mask-type:luminance" maskUnits="userSpaceOnUse" x="0" y="-212" width="353" height="379"><path d="M.998-211.754h351.33v378.08H.998v-378.08Z" fill="#fff"/></mask><g mask="url(#a)"><path d="M189.708-210.144c8.93 1.59 17.73 3.68 26.35 6.52 22.93 7.54 43.62 19.09 62.03 34.7 18.38 15.59 33.1 34.12 44.4 55.39a188.395 188.395 0 0 1 18.99 54.49c1.22 6.63 2.03 13.33 2.54 20.06.53 6.98.64 13.97.35 20.96-.63 15.5-3.14 30.7-7.63 45.56-6.91 22.92-17.86 43.71-33.07 62.21-15.12 18.39-33.28 33.04-54.37 44.09-13.43 7.04-27.53 12.29-42.31 15.7-7.82 1.81-15.74 3.04-23.74 3.78-7.45.69-14.92.9-22.39.61-15.79-.61-31.26-3.22-46.36-7.91-23.8-7.4-45.24-19.13-64.32-35.16-1.24-1.04-2.46-2.12-3.92-3.37 6.75-.99 13.2-1.94 20.01-2.94-21.84-9.11-43.28-18.26-65.28-26.9 10.8 20.64 21.46 41.04 32.13 61.44l.26-.06c1.32-7.11 2.63-14.22 3.98-21.5 2.27 2.64 4.43 5.08 6.79 7.35 7.58 7.27 16.1 13.23 25.28 18.28 16.01 8.79 33.1 14.65 50.91 18.48 8.63 1.86 17.35 3.11 26.14 3.91 8.41.76 16.84.95 25.27.6 24.78-1.03 48.48-6.68 71.01-17.09 17.95-8.29 34.19-19.15 48.69-32.59 22.54-20.88 39.04-45.78 49.56-74.64 4.23-11.62 7.24-23.56 9.1-35.78 1.11-7.26 1.74-14.57 2.04-21.92.36-8.92.08-17.81-.85-26.68-2.47-23.68-9.16-46.12-20.12-67.26-7.75-14.94-17.34-28.6-28.74-40.99-15.3-16.63-32.98-30.15-53.06-40.53-16.72-8.64-34.35-14.59-52.85-17.99-2.27-.42-4.54-.9-6.86-1.03.03.08.04.14.04.21Z" fill="#DEB887"/></g></svg>